<svg xmlns="http://www.w3.org/2000/svg" xmlns:xlink="http://www.w3.org/1999/xlink" contentStyleType="text/css" height="339px" preserveAspectRatio="none" style="width:716px;height:339px;background:#FFFFFF;" version="1.1" viewBox="0 0 716 339" width="716px" zoomAndPan="magnify"><defs/><g><!--cluster component--><g id="cluster_component"><rect fill="#FFFFFF" height="89.01" rx="2.5" ry="2.5" style="stroke:#000000;stroke-width:1;" width="166" x="12" y="19"/><text fill="#000000" font-family="Verdana" font-size="14" font-weight="bold" lengthAdjust="spacing" textLength="97.8838" x="46.0581" y="35.0752">Components</text></g><!--cluster package--><g id="cluster_package"><path d="M268.5,11 L334.708,11 A3.75,3.75 0 0 1 337.208,13.5 L344.208,34.0146 L535.5,34.0146 A2.5,2.5 0 0 1 538,36.5146 L538,229.53 A2.5,2.5 0 0 1 535.5,232.03 L268.5,232.03 A2.5,2.5 0 0 1 266,229.53 L266,13.5 A2.5,2.5 0 0 1 268.5,11 " fill="#FFFFFF" style="stroke:#000000;stroke-width:1;"/><line style="stroke:#000000;stroke-width:1;" x1="266" x2="344.208" y1="34.0146" y2="34.0146"/><text fill="#000000" font-family="Verdana" font-size="14" font-weight="bold" lengthAdjust="spacing" textLength="65.208" x="270" y="27.0752">package</text></g><!--entity component_listeners--><g id="elem_component_listeners"><rect fill="#FFFFFF" height="37.0146" rx="2.5" ry="2.5" style="stroke:#000000;stroke-width:2;" width="134.3857" x="27.81" y="55"/><text fill="#000000" font-family="Verdana" font-size="14" lengthAdjust="spacing" textLength="114.3857" x="37.81" y="79.0752">on, dispatch, off</text></g><!--entity injectable--><g id="elem_injectable"><rect fill="#FFFFFF" height="37.0146" rx="2.5" ry="2.5" style="stroke:#000000;stroke-width:1;" width="155.126" x="299.44" y="171.01"/><text fill="#000000" font-family="Verdana" font-size="14" lengthAdjust="spacing" textLength="135.126" x="309.44" y="195.0852">eventBusInjectable</text></g><!--entity hook--><g id="elem_hook"><rect fill="#FFFFFF" height="37.0146" rx="2.5" ry="2.5" style="stroke:#000000;stroke-width:1;" width="110.0977" x="289.95" y="55"/><text fill="#000000" font-family="Verdana" font-size="14" lengthAdjust="spacing" textLength="90.0977" x="299.95" y="79.0752">useEventBus</text></g><!--entity <&script>mitt--><g id="elem_&lt;&amp;script&gt;mitt"><rect fill="#FFFFFF" height="37.0146" rx="2.5" ry="2.5" style="stroke:#000000;stroke-width:1;" width="59.8255" x="435.09" y="55"/><path d="M449.59,69.1813 C448.9483,69.1813 448.4233,69.7063 448.4233,70.348 L448.4233,76.7646 C448.4233,77.0913 448.1667,77.348 447.84,77.348 C447.5133,77.348 447.2567,77.0913 447.2567,76.7646 L447.2567,75.0146 L446.09,75.0146 L446.09,77.348 C446.09,77.9896 446.615,78.5146 447.2567,78.5146 L453.09,78.5146 C453.7317,78.5146 454.2567,77.9896 454.2567,77.348 L454.2567,73.848 L449.59,73.848 L449.59,70.9313 C449.59,70.6046 449.8467,70.348 450.1733,70.348 C450.5,70.348 450.7567,70.6046 450.7567,70.9313 L450.7567,72.6813 L455.4233,72.6813 L455.4233,70.348 C455.4233,69.7063 454.8983,69.1813 454.2567,69.1813 L449.59,69.1813 " fill="#000000" style="stroke:;stroke-width:0;stroke-dasharray:;"/><text fill="#000000" font-family="Verdana" font-size="14" lengthAdjust="spacing" textLength="28.4922" x="456.4233" y="79.0752">mitt</text></g><!--entity model--><g id="elem_model"><rect fill="#FFFFFF" height="37.0146" rx="2.5" ry="2.5" style="stroke:#000000;stroke-width:2;" width="61.2002" x="475.4" y="296.03"/><text fill="#000000" font-family="Verdana" font-size="14" lengthAdjust="spacing" textLength="41.2002" x="485.4" y="320.1052">Model</text></g><!--entity raw_listeners--><g id="elem_raw_listeners"><rect fill="#FFFFFF" height="37.0146" rx="2.5" ry="2.5" style="stroke:#000000;stroke-width:2;" width="148.0029" x="562" y="171.01"/><text fill="#000000" font-family="Verdana" font-size="14" lengthAdjust="spacing" textLength="128.0029" x="572" y="195.0852">on, dispatchm, off</text></g><!--reverse link component_listeners to hook--><g id="link_component_listeners_hook"><path codeLine="21" d="M168.65,73.5 C208.42,73.5 252.07,73.5 289.52,73.5 " fill="none" id="component_listeners-backto-hook" style="stroke:#000000;stroke-width:1;"/><polygon fill="#000000" points="162.65,73.5,171.65,77.5,167.65,73.5,171.65,69.5,162.65,73.5" style="stroke:#000000;stroke-width:1;"/><text fill="#000000" font-family="Verdana" font-size="13" lengthAdjust="spacing" textLength="91.6094" x="180.57" y="51.5698">for reactive of</text><text fill="#000000" font-family="Verdana" font-size="13" lengthAdjust="spacing" textLength="91.311" x="180.7192" y="67.3691">model's event</text></g><!--reverse link injectable to model--><g id="link_injectable_model"><path codeLine="22" d="M404.4453,216.6905 C428.9053,240.0105 462.75,272.29 487.22,295.62 " fill="none" id="injectable-backto-model" style="stroke:#000000;stroke-width:1;"/><polygon fill="#000000" points="395.76,208.41,397.3425,215.4453,404.4453,216.6905,402.8628,209.6551,395.76,208.41" style="stroke:#000000;stroke-width:1;"/></g><!--reverse link hook to injectable--><g id="link_hook_injectable"><path codeLine="23" d="M340.9319,104.3517 C339.4719,117.9817 340.14,125.11 345,141.01 C348.31,151.85 355.02,162.46 361.44,170.89 " fill="none" id="hook-backto-injectable" style="stroke:#000000;stroke-width:1;"/><polygon fill="#000000" points="342.21,92.42,337.5937,97.9598,340.9319,104.3517,345.5482,98.8119,342.21,92.42" style="stroke:#000000;stroke-width:1;"/></g><!--reverse link injectable to hook--><g id="link_injectable_hook"><path codeLine="24" d="M370.4181,165.0534 C364.4181,143.6834 356.01,113.74 350,92.32 " fill="none" id="injectable-backto-hook" style="stroke:#000000;stroke-width:1;"/><polygon fill="#000000" points="372.04,170.83,373.4583,161.0838,370.6884,166.0161,365.7561,163.2463,372.04,170.83" style="stroke:#000000;stroke-width:1;"/><text fill="#000000" font-family="Verdana" font-size="13" lengthAdjust="spacing" textLength="35.9087" x="363.92" y="138.0798">inject</text><path d="M408.649,128.8926 C408.0532,128.8926 407.5657,129.3801 407.5657,129.976 L407.5657,135.9343 C407.5657,136.2376 407.3273,136.476 407.024,136.476 C406.7207,136.476 406.4823,136.2376 406.4823,135.9343 L406.4823,134.3093 L405.399,134.3093 L405.399,136.476 C405.399,137.0718 405.8865,137.5593 406.4823,137.5593 L411.899,137.5593 C412.4948,137.5593 412.9823,137.0718 412.9823,136.476 L412.9823,133.226 L408.649,133.226 L408.649,130.5176 C408.649,130.2143 408.8873,129.976 409.1907,129.976 C409.494,129.976 409.7323,130.2143 409.7323,130.5176 L409.7323,132.1426 L414.0657,132.1426 L414.0657,129.976 C414.0657,129.3801 413.5782,128.8926 412.9823,128.8926 L408.649,128.8926 " fill="#000000" style="stroke:;stroke-width:0;stroke-dasharray:;"/></g><!--link component_listeners to injectable--><g id="link_component_listeners_injectable"><path codeLine="25" d="M144.9323,94.6895 C197.8223,116.0795 274.5475,147.091 327.3275,168.431 " fill="none" id="component_listeners-injectable" style="stroke:#000000;stroke-width:1;"/><polygon fill="#000000" points="139.37,92.44,146.2138,99.5225,144.0053,94.3146,149.2132,92.1061,139.37,92.44" style="stroke:#000000;stroke-width:1;"/><polygon fill="#000000" points="332.89,170.68,326.0456,163.5981,328.2546,168.8058,323.0468,171.0148,332.89,170.68" style="stroke:#000000;stroke-width:1;"/><text fill="#000000" font-family="Verdana" font-size="13" lengthAdjust="spacing" textLength="60.9185" x="253.88" y="138.0798">EventBus</text></g><!--link package to raw_listeners--><g id="link_package_raw_listeners"><path codeLine="26" d="M538.1989,83.3226 C538.371,83.5076 538.5454,83.6952 538.722,83.8851 C539.4285,84.645 540.1711,85.4438 540.9473,86.2788 C547.1572,92.9581 555.5169,101.95 564.7138,111.8425 C583.1075,131.6275 600.7649,150.6205 615.3549,166.3155 " fill="none" id="package-to-raw_listeners" style="stroke:#000000;stroke-width:1;"/><polygon fill="#000000" points="619.44,170.71,616.242,161.3948,616.0357,167.0479,610.3826,166.8416,619.44,170.71" style="stroke:#000000;stroke-width:1;"/><path d="M594.6,128.51 C594.0042,128.51 593.5167,128.9975 593.5167,129.5933 L593.5167,135.5517 C593.5167,135.855 593.2783,136.0933 592.975,136.0933 C592.6717,136.0933 592.4333,135.855 592.4333,135.5517 L592.4333,133.9267 L591.35,133.9267 L591.35,136.0933 C591.35,136.6892 591.8375,137.1767 592.4333,137.1767 L597.85,137.1767 C598.4458,137.1767 598.9333,136.6892 598.9333,136.0933 L598.9333,132.8433 L594.6,132.8433 L594.6,130.135 C594.6,129.8317 594.8383,129.5933 595.1417,129.5933 C595.445,129.5933 595.6833,129.8317 595.6833,130.135 L595.6833,131.76 L600.0167,131.76 L600.0167,129.5933 C600.0167,128.9975 599.5292,128.51 598.9333,128.51 L594.6,128.51 " fill="#000000" style="stroke:;stroke-width:0;stroke-dasharray:;"/></g><!--link raw_listeners to model--><g id="link_raw_listeners_model"><path codeLine="27" d="M617.1,208.41 C592.45,231.73 553.9377,268.1656 529.2877,291.4956 " fill="none" id="raw_listeners-to-model" style="stroke:#000000;stroke-width:1;"/><polygon fill="#000000" points="524.93,295.62,534.2161,292.3386,528.5614,292.183,528.717,286.5283,524.93,295.62" style="stroke:#000000;stroke-width:1;"/><path d="M568.47,257.03 C567.8742,257.03 567.3867,257.5175 567.3867,258.1133 L567.3867,264.0717 C567.3867,264.375 567.1483,264.6133 566.845,264.6133 C566.5417,264.6133 566.3033,264.375 566.3033,264.0717 L566.3033,262.4467 L565.22,262.4467 L565.22,264.6133 C565.22,265.2092 565.7075,265.6967 566.3033,265.6967 L571.72,265.6967 C572.3158,265.6967 572.8033,265.2092 572.8033,264.6133 L572.8033,261.3633 L568.47,261.3633 L568.47,258.655 C568.47,258.3517 568.7083,258.1133 569.0117,258.1133 C569.315,258.1133 569.5533,258.3517 569.5533,258.655 L569.5533,260.28 L573.8867,260.28 L573.8867,258.1133 C573.8867,257.5175 573.3992,257.03 572.8033,257.03 L568.47,257.03 " fill="#000000" style="stroke:;stroke-width:0;stroke-dasharray:;"/></g><!--SRC=[TL7BJiCm4BpxAvOYWOHgFY2gUW1nuC0V827NsJIcVibsoW7rtx7ZjBPHUqfsTsOoCxaB8oe4AvdGX3ZaWUczH7WroXgDEdXW7lXvWby2K50hezVG2szPuECQp32i6lYN53wWHkVXNWgDppiZ-rdZH4w4MCOFR1-_lZnRSJn6XPV9l-lljDl5LTGMPSewDMNo-BQm4dOqvd05jNdmt0aRjag4S75JxX-cHvduQdvfdDUu9hqgyHtxkHKyXhvMpePchnqCnaMdZ0Tnn2ZugMSFZpwtGQhqJvHcWsIcfh5SyuvET5iNrYr3QU26c_-qSwcNFvOGRSok4cql2PkRh31_]--></g></svg>